<svg xmlns="http://www.w3.org/2000/svg" viewBox="0 0 512 512">
  <rect width="512" height="512" rx="120" fill="#f6f0e5"/>
  <rect x="48" y="48" width="416" height="416" rx="92" fill="#6d8f55"/>
  <path d="M256 104c27 49 39 84 39 118 0 61-35 108-93 128 3-41 20-73 50-102-37 18-66 48-86 91-16-23-24-51-24-83 0-70 42-123 114-152z" fill="#fff7ee"/>
  <circle cx="344" cy="304" r="58" fill="#d28d54"/>
  <path d="M344 246c20 20 31 42 31 63 0 28-15 49-39 63 0-26 7-48 20-66-18 11-31 30-41 53-11-12-17-30-17-49 0-27 16-48 46-64z" fill="#fff7ee"/>
</svg>
